<mxfile host="app.diagrams.net" modified="2021-05-29T09:21:58.418Z" agent="5.0 (Windows NT 10.0; Win64; x64) AppleWebKit/537.36 (KHTML, like Gecko) Chrome/91.0.4472.77 Safari/537.36 Edg/91.0.864.37" etag="V97QmCOTehJ28XLldUuK" version="14.7.2" type="github">
  <diagram name="Page-1" id="13e1069c-82ec-6db2-03f1-153e76fe0fe0">
    <mxGraphModel dx="2830" dy="1032" grid="1" gridSize="10" guides="1" tooltips="1" connect="1" arrows="1" fold="1" page="1" pageScale="1" pageWidth="1100" pageHeight="850" background="none" math="0" shadow="0">
      <root>
        <mxCell id="0" />
        <mxCell id="1" parent="0" />
        <mxCell id="t7-XMpVzIaBx_4DzY6IZ-27" value="" style="rounded=0;whiteSpace=wrap;html=1;strokeColor=#b46504;fillColor=#fad7ac;" vertex="1" parent="1">
          <mxGeometry x="-240" y="10" width="1700" height="880" as="geometry" />
        </mxCell>
        <mxCell id="t7-XMpVzIaBx_4DzY6IZ-1" value="&lt;font style=&quot;font-size: 18px&quot;&gt;FINITE STATE MACHINE&lt;/font&gt;" style="rounded=0;whiteSpace=wrap;html=1;fillColor=#999999;" vertex="1" parent="1">
          <mxGeometry x="80" y="40" width="200" height="120" as="geometry" />
        </mxCell>
        <mxCell id="t7-XMpVzIaBx_4DzY6IZ-2" value="&lt;font style=&quot;font-size: 18px&quot;&gt;HUMAN COLLISION AVOIDANCE&lt;/font&gt;" style="rounded=0;whiteSpace=wrap;html=1;fillColor=#999999;" vertex="1" parent="1">
          <mxGeometry x="360" y="40" width="200" height="120" as="geometry" />
        </mxCell>
        <mxCell id="t7-XMpVzIaBx_4DzY6IZ-3" value="&lt;font style=&quot;font-size: 18px&quot;&gt;TF NODE&lt;/font&gt;" style="rounded=0;whiteSpace=wrap;html=1;fillColor=#999999;" vertex="1" parent="1">
          <mxGeometry x="640" y="40" width="200" height="120" as="geometry" />
        </mxCell>
        <mxCell id="t7-XMpVzIaBx_4DzY6IZ-5" value="&lt;font style=&quot;font-size: 18px&quot;&gt;DATA SYNC&lt;/font&gt;" style="rounded=0;whiteSpace=wrap;html=1;fillColor=#999999;" vertex="1" parent="1">
          <mxGeometry x="920" y="40" width="200" height="120" as="geometry" />
        </mxCell>
        <mxCell id="t7-XMpVzIaBx_4DzY6IZ-6" value="&lt;font style=&quot;font-size: 18px&quot;&gt;MOVE IT&lt;/font&gt;" style="rounded=0;whiteSpace=wrap;html=1;fillColor=#999999;" vertex="1" parent="1">
          <mxGeometry x="1200" y="40" width="200" height="120" as="geometry" />
        </mxCell>
        <mxCell id="t7-XMpVzIaBx_4DzY6IZ-8" value="" style="endArrow=none;html=1;entryX=0.5;entryY=1;entryDx=0;entryDy=0;" edge="1" parent="1" target="t7-XMpVzIaBx_4DzY6IZ-1">
          <mxGeometry width="50" height="50" relative="1" as="geometry">
            <mxPoint x="180" y="830" as="sourcePoint" />
            <mxPoint x="890" y="-30" as="targetPoint" />
          </mxGeometry>
        </mxCell>
        <mxCell id="t7-XMpVzIaBx_4DzY6IZ-9" value="" style="endArrow=none;html=1;entryX=0.5;entryY=1;entryDx=0;entryDy=0;" edge="1" parent="1">
          <mxGeometry width="50" height="50" relative="1" as="geometry">
            <mxPoint x="459.17" y="830.0000000000002" as="sourcePoint" />
            <mxPoint x="459.17" y="160" as="targetPoint" />
          </mxGeometry>
        </mxCell>
        <mxCell id="t7-XMpVzIaBx_4DzY6IZ-10" value="" style="endArrow=none;html=1;entryX=0.5;entryY=1;entryDx=0;entryDy=0;" edge="1" parent="1">
          <mxGeometry width="50" height="50" relative="1" as="geometry">
            <mxPoint x="739.1700000000001" y="830.0000000000002" as="sourcePoint" />
            <mxPoint x="739.1700000000001" y="160" as="targetPoint" />
          </mxGeometry>
        </mxCell>
        <mxCell id="t7-XMpVzIaBx_4DzY6IZ-12" value="" style="endArrow=none;html=1;entryX=0.5;entryY=1;entryDx=0;entryDy=0;" edge="1" parent="1">
          <mxGeometry width="50" height="50" relative="1" as="geometry">
            <mxPoint x="1019.1700000000001" y="830.0000000000002" as="sourcePoint" />
            <mxPoint x="1019.1700000000001" y="160" as="targetPoint" />
          </mxGeometry>
        </mxCell>
        <mxCell id="t7-XMpVzIaBx_4DzY6IZ-13" value="" style="endArrow=none;html=1;entryX=0.5;entryY=1;entryDx=0;entryDy=0;" edge="1" parent="1">
          <mxGeometry width="50" height="50" relative="1" as="geometry">
            <mxPoint x="1299.17" y="830.0000000000002" as="sourcePoint" />
            <mxPoint x="1299.17" y="160" as="targetPoint" />
          </mxGeometry>
        </mxCell>
        <mxCell id="t7-XMpVzIaBx_4DzY6IZ-15" value="&lt;font style=&quot;font-size: 18px&quot;&gt;UNITY&lt;/font&gt;" style="rounded=0;whiteSpace=wrap;html=1;fillColor=#999999;" vertex="1" parent="1">
          <mxGeometry x="-200" y="40" width="200" height="120" as="geometry" />
        </mxCell>
        <mxCell id="t7-XMpVzIaBx_4DzY6IZ-16" value="" style="endArrow=none;html=1;entryX=0.5;entryY=1;entryDx=0;entryDy=0;" edge="1" parent="1">
          <mxGeometry width="50" height="50" relative="1" as="geometry">
            <mxPoint x="-100.82999999999993" y="830.0000000000002" as="sourcePoint" />
            <mxPoint x="-100.82999999999993" y="160" as="targetPoint" />
          </mxGeometry>
        </mxCell>
        <mxCell id="t7-XMpVzIaBx_4DzY6IZ-17" value="" style="endArrow=classic;html=1;" edge="1" parent="1">
          <mxGeometry width="50" height="50" relative="1" as="geometry">
            <mxPoint x="-100" y="280" as="sourcePoint" />
            <mxPoint x="740" y="280" as="targetPoint" />
          </mxGeometry>
        </mxCell>
        <mxCell id="t7-XMpVzIaBx_4DzY6IZ-18" value="" style="endArrow=classic;html=1;" edge="1" parent="1">
          <mxGeometry width="50" height="50" relative="1" as="geometry">
            <mxPoint x="-90" y="360" as="sourcePoint" />
            <mxPoint x="750" y="360" as="targetPoint" />
          </mxGeometry>
        </mxCell>
        <mxCell id="t7-XMpVzIaBx_4DzY6IZ-19" value="&lt;p style=&quot;margin-top: 0pt ; margin-bottom: 0pt ; margin-left: 0in ; text-align: left ; direction: ltr ; unicode-bidi: embed ; word-break: normal&quot;&gt;&lt;font style=&quot;font-size: 18px&quot;&gt;&lt;span style=&quot;font-family: &amp;#34;calibri&amp;#34;&quot;&gt;Human’s upper limb frames (&lt;/span&gt;&lt;span style=&quot;font-family: &amp;#34;calibri&amp;#34; ; font-weight: bold&quot;&gt;geometry_msgs&lt;/span&gt;&lt;span style=&quot;font-family: &amp;#34;calibri&amp;#34; ; font-weight: bold&quot;&gt;/&lt;/span&gt;&lt;span style=&quot;font-family: &amp;#34;calibri&amp;#34; ; font-weight: bold&quot;&gt;PoseStamped&lt;/span&gt;&lt;span style=&quot;font-family: &amp;#34;calibri&amp;#34; ; font-weight: bold&quot;&gt;&lt;br&gt;[]&lt;/span&gt;&lt;span style=&quot;font-family: &amp;#34;calibri&amp;#34;&quot;&gt;)&lt;/span&gt;&lt;/font&gt;&lt;/p&gt;" style="text;html=1;strokeColor=none;fillColor=none;align=center;verticalAlign=middle;whiteSpace=wrap;rounded=0;" vertex="1" parent="1">
          <mxGeometry x="190" y="170" width="260" height="110" as="geometry" />
        </mxCell>
        <mxCell id="t7-XMpVzIaBx_4DzY6IZ-20" value="&lt;p style=&quot;margin-top: 0pt ; margin-bottom: 0pt ; margin-left: 0in ; text-align: left ; direction: ltr ; unicode-bidi: embed ; word-break: normal&quot;&gt;&lt;font style=&quot;font-size: 18px&quot;&gt;&lt;span style=&quot;font-family: &amp;#34;calibri&amp;#34;&quot;&gt;Interactable objects (&lt;/span&gt;&lt;span style=&quot;font-family: &amp;#34;calibri&amp;#34; ; font-weight: bold&quot;&gt;geometry_msgs&lt;/span&gt;&lt;span style=&quot;font-family: &amp;#34;calibri&amp;#34; ; font-weight: bold&quot;&gt;/&lt;/span&gt;&lt;span style=&quot;font-family: &amp;#34;calibri&amp;#34; ; font-weight: bold&quot;&gt;PoseStamped&lt;/span&gt;&lt;span style=&quot;font-family: &amp;#34;calibri&amp;#34; ; font-weight: bold&quot;&gt;&lt;br&gt;[]&lt;/span&gt;&lt;span style=&quot;font-family: &amp;#34;calibri&amp;#34;&quot;&gt;)&lt;/span&gt;&lt;/font&gt;&lt;/p&gt;" style="text;html=1;strokeColor=none;fillColor=none;align=center;verticalAlign=middle;whiteSpace=wrap;rounded=0;" vertex="1" parent="1">
          <mxGeometry x="470" y="290" width="250" height="60" as="geometry" />
        </mxCell>
        <mxCell id="t7-XMpVzIaBx_4DzY6IZ-21" value="" style="endArrow=classic;html=1;" edge="1" parent="1">
          <mxGeometry width="50" height="50" relative="1" as="geometry">
            <mxPoint x="-100" y="440" as="sourcePoint" />
            <mxPoint x="1020" y="440" as="targetPoint" />
          </mxGeometry>
        </mxCell>
        <mxCell id="t7-XMpVzIaBx_4DzY6IZ-22" value="&lt;p style=&quot;margin-top: 0pt ; margin-bottom: 0pt ; margin-left: 0in ; text-align: left ; direction: ltr ; unicode-bidi: embed ; word-break: normal&quot;&gt;&lt;font style=&quot;font-size: 18px&quot;&gt;&lt;span style=&quot;font-family: &amp;#34;calibri&amp;#34;&quot;&gt;Robot’s joint positions (&lt;/span&gt;&lt;span style=&quot;font-family: &amp;#34;calibri&amp;#34; ; font-weight: bold&quot;&gt;sensor_msgs&lt;/span&gt;&lt;span style=&quot;font-family: &amp;#34;calibri&amp;#34; ; font-weight: bold&quot;&gt;/&lt;/span&gt;&lt;span style=&quot;font-family: &amp;#34;calibri&amp;#34; ; font-weight: bold&quot;&gt;JointState&lt;/span&gt;&lt;span style=&quot;font-family: &amp;#34;calibri&amp;#34;&quot;&gt;)&lt;/span&gt;&lt;/font&gt;&lt;/p&gt;" style="text;html=1;strokeColor=none;fillColor=none;align=center;verticalAlign=middle;whiteSpace=wrap;rounded=0;" vertex="1" parent="1">
          <mxGeometry x="760" y="360" width="220" height="80" as="geometry" />
        </mxCell>
        <mxCell id="t7-XMpVzIaBx_4DzY6IZ-23" value="" style="endArrow=classic;html=1;" edge="1" parent="1">
          <mxGeometry width="50" height="50" relative="1" as="geometry">
            <mxPoint x="-100" y="520" as="sourcePoint" />
            <mxPoint x="1020" y="520" as="targetPoint" />
          </mxGeometry>
        </mxCell>
        <mxCell id="t7-XMpVzIaBx_4DzY6IZ-24" value="&lt;p style=&quot;margin-top: 0pt ; margin-bottom: 0pt ; margin-left: 0in ; text-align: left ; direction: ltr ; unicode-bidi: embed ; word-break: normal&quot;&gt;&lt;font style=&quot;font-size: 18px&quot;&gt;&lt;span style=&quot;font-family: &amp;#34;calibri&amp;#34;&quot;&gt;Next action (&lt;/span&gt;&lt;span style=&quot;font-family: &amp;#34;calibri&amp;#34; ; font-weight: bold&quot;&gt;geometry_msgs&lt;/span&gt;&lt;span style=&quot;font-family: &amp;#34;calibri&amp;#34; ; font-weight: bold&quot;&gt;/&lt;/span&gt;&lt;span style=&quot;font-family: &amp;#34;calibri&amp;#34; ; font-weight: bold&quot;&gt;PoseStamped&lt;/span&gt;&lt;span style=&quot;font-family: &amp;#34;calibri&amp;#34;&quot;&gt;)&lt;/span&gt;&lt;/font&gt;&lt;/p&gt;" style="text;html=1;strokeColor=none;fillColor=none;align=center;verticalAlign=middle;whiteSpace=wrap;rounded=0;" vertex="1" parent="1">
          <mxGeometry x="760" y="460" width="240" height="50" as="geometry" />
        </mxCell>
        <mxCell id="t7-XMpVzIaBx_4DzY6IZ-25" value="" style="endArrow=classic;html=1;" edge="1" parent="1">
          <mxGeometry width="50" height="50" relative="1" as="geometry">
            <mxPoint x="-100" y="640" as="sourcePoint" />
            <mxPoint x="1300" y="640" as="targetPoint" />
          </mxGeometry>
        </mxCell>
        <mxCell id="t7-XMpVzIaBx_4DzY6IZ-26" value="&lt;font style=&quot;font-size: 18px&quot;&gt;&lt;br&gt;&lt;br&gt;&lt;br&gt;&lt;br&gt;&lt;span style=&quot;text-align: left ; font-family: &amp;#34;calibri&amp;#34;&quot;&gt;&lt;br&gt;&lt;br&gt;Robot’s joint trajectories (&lt;/span&gt;&lt;span style=&quot;text-align: left ; font-family: &amp;#34;calibri&amp;#34; ; font-weight: bold&quot;&gt;moveit_msgs&lt;/span&gt;&lt;span style=&quot;text-align: left ; font-family: &amp;#34;calibri&amp;#34; ; font-weight: bold&quot;&gt;/&lt;/span&gt;&lt;span style=&quot;text-align: left ; font-family: &amp;#34;calibri&amp;#34; ; font-weight: bold&quot;&gt;RobotTrajectory&lt;/span&gt;&lt;span style=&quot;text-align: left ; font-family: &amp;#34;calibri&amp;#34;&quot;&gt;)&lt;/span&gt;&lt;br&gt;&lt;br&gt;&lt;br&gt;&lt;br&gt;&lt;br&gt;&lt;/font&gt;" style="text;html=1;strokeColor=none;fillColor=none;align=center;verticalAlign=middle;whiteSpace=wrap;rounded=0;" vertex="1" parent="1">
          <mxGeometry x="1040" y="550" width="240" height="80" as="geometry" />
        </mxCell>
        <mxCell id="t7-XMpVzIaBx_4DzY6IZ-28" value="&lt;font style=&quot;font-size: 24px&quot;&gt;HRC-12 SEQUENCE DIAGRAM&lt;/font&gt;" style="text;html=1;strokeColor=none;fillColor=none;align=center;verticalAlign=middle;whiteSpace=wrap;rounded=0;" vertex="1" parent="1">
          <mxGeometry x="-70" y="810" width="240" height="70" as="geometry" />
        </mxCell>
      </root>
    </mxGraphModel>
  </diagram>
</mxfile>
